<svg viewbox="0 0 181 46" xmlns="http://www.w3.org/2000/svg" aria-hidden class="w-[181px] h-[46px] md:w-[197px] md:h-[50px] xl:w-[236px] xl:h-[60px]"><clipPath id="a"><path d="m0 0h181v45.0683h-181z"></path></clipPath><mask id="b" height="53" maskUnits="userSpaceOnUse" width="182" x="-1" y="0"><path d="m180.999 0h-180.99997656v52.9919h180.99997656z" fill="#fff"></path></mask><mask id="c" height="53" maskUnits="userSpaceOnUse" width="182" x="-1" y="0"><path d="m180.999 0h-180.99997656v52.9919h180.99997656z" fill="#fff"></path></mask><mask id="d" height="53" maskUnits="userSpaceOnUse" width="182" x="-1" y="0"><path d="m180.999 0h-180.99997656v52.9919h180.99997656z" fill="#fff"></path></mask><mask id="e" height="53" maskUnits="userSpaceOnUse" width="182" x="-1" y="0"><path d="m180.999 0h-180.99997656v52.9919h180.99997656z" fill="#fff"></path></mask><mask id="f" height="53" maskUnits="userSpaceOnUse" width="182" x="-1" y="0"><path d="m180.999 0h-180.99997656v52.9919h180.99997656z" fill="#fff"></path></mask><mask id="g" height="53" maskUnits="userSpaceOnUse" width="182" x="-1" y="0"><path d="m180.999 0h-180.99997656v52.9919h180.99997656z" fill="#fff"></path></mask><mask id="h" height="53" maskUnits="userSpaceOnUse" width="182" x="-1" y="0"><path d="m180.999 0h-180.99997656v52.9919h180.99997656z" fill="#fff"></path></mask><mask id="i" height="53" maskUnits="userSpaceOnUse" width="182" x="-1" y="0"><path d="m180.999 0h-180.99997656v52.9919h180.99997656z" fill="#fff"></path></mask><mask id="j" height="53" maskUnits="userSpaceOnUse" width="182" x="-1" y="0"><path d="m180.999 0h-180.99997656v52.9919h180.99997656z" fill="#fff"></path></mask><mask id="k" height="53" maskUnits="userSpaceOnUse" width="182" x="-1" y="0"><path d="m180.999 0h-180.99997656v52.9919h180.99997656z" fill="#fff"></path></mask><mask id="l" height="53" maskUnits="userSpaceOnUse" width="182" x="-1" y="0"><path d="m180.999 0h-180.99997656v52.9919h180.99997656z" fill="#fff"></path></mask><mask id="m" height="53" maskUnits="userSpaceOnUse" width="182" x="-1" y="0"><path d="m180.999 0h-180.99997656v52.9919h180.99997656z" fill="#fff"></path></mask><mask id="n" height="53" maskUnits="userSpaceOnUse" width="182" x="-1" y="0"><path d="m180.999 0h-180.99997656v52.9919h180.99997656z" fill="#fff"></path></mask><g clip-path="url(#a)"><g mask="url(#b)"><path d="m47.1619 2.06105c4.8808-1.374034 8.0739-.91602 8.0739-.91602s-3.6492-1.14503-9.8985-1.14503c-8.0738 0-14.3231 2.15265-22.625 8.24419-3.193 2.33581-8.3931 5.99991-12.86338 8.33581-5.70187 2.9313-9.85282625 3.2519-9.85282625 3.2519s4.33341625.7328 9.71597625.5496c2.96493-.1374 5.70183-.7786 8.39313-1.7405 3.1474-1.0992 7.9826-4.1679 10.7195-6.1831 5.337-3.9389 12.681-8.79381 18.3372-10.39685z" fill="#b69854"></path></g><g mask="url(#c)"><path d="m48.1185 10.7202c.593-.458 1.5965-1.09919 2.8281-1.92361 1.9158-1.19083 4.8808-2.93127 7.8914-3.89309 4.6527-1.46564 9.2598-1.14503 9.2598-1.14503s-6.7966-1.96945-14.0494-1.05343c-6.2036.73282-10.7651 2.19846-20.4355 8.74796-3.9685 2.7023-9.944 7.6488-16.9231 9.7099-3.4211 1.0076-6.3861 1.145-6.3861 1.145s4.2878 1.5114 11.495.8702c3.7404-.3206 6.2492-.8244 9.0773-1.832 3.7405-1.3283 6.3405-3.0229 8.8037-4.5801 2.6913-1.6947 7.344-5.2671 8.4388-6.0458z" fill="#b69854"></path></g><g mask="url(#d)"><path d="m72.6604 5.49294c-7.7089-.87022-14.0494.45801-22.4881 6.18316-2.7826 1.9236-6.6142 5.0839-10.902 7.6946-2.8281 1.6946-4.7896 2.8396-8.4844 4.1221-2.0527.687-4.2422 1.2366-7.8914 1.603 0 0 2.1439.6412 5.337.8244 2.3263.1374 4.8808.2748 8.165 0 6.3405-.5496 10.2634-1.6946 15.6916-5.4961-.1369-.5954-.2281-1.2366-.2281-1.9237 0-5.0381 3.7404-8.65636 8.8949-8.65636 1.5965 0 3.1018.41216 4.379 1.14506.593-.3206 1.1404-.6412 1.6878-.9619 7.8458-4.03045 13.9582-2.65642 13.9582-2.65642s-5.0177-1.51143-8.1195-1.87784z" fill="#b69854"></path></g><g mask="url(#e)"><path d="m56.962 18.1353c.0457 3.2977 2.3264 5.2214 5.3826 5.2214 1.6421 0 3.193-.4581 4.4246-1.4199h.0913l-1.3685 2.5649c-1.1403.5038-2.4632.687-3.7404.687-4.6071 0-7.7545-2.8855-7.7545-6.687s2.7369-6.5037 6.751-6.5037c3.6948 0 6.2036 2.6564 6.0668 6.1373zm7.0704-1.5572c-.3194-1.8779-1.551-2.7939-3.4668-2.7939-1.8246 0-3.1474 1.0993-3.4667 2.7939z" fill="#000" fill-opacity=".9"></path></g><g mask="url(#f)"><path d="m72.3905 22.8523c-.5018.5496-1.186 1.2825-.0456 1.8779v.0916h-4.3791v-.0916l5.7931-6.458-2.7825-3.6183c-.6386-.916-1.3684-1.6946-2.2807-2.2442v-.0916h2.0526c.9123 0 1.6878.229 2.372 1.145l2.3264 3.1145 1.7333-2.1069c.5474-.6412 1.3229-1.6488 0-2.1068v-.0916h4.4703l-5.0176 5.8167 2.9649 3.9389c.7755 1.0076 1.6422 2.1069 2.7369 2.7481h-2.9193c-.8211 0-1.2773-.5038-1.6878-1.0993l-2.7825-3.8014z" fill="#000" fill-opacity=".9"></path></g><g mask="url(#g)"><path d="m93.8763 15.1125h-.0912c-.7755-.9161-2.0983-1.3283-3.2843-1.3283-2.6 0-4.5159 1.8321-4.5159 4.4427 0 3.1145 2.6001 5.1756 5.6107 5.1756 1.3684 0 2.8737-.5497 3.9229-1.3283h.0912l-1.4141 2.5649c-1.1403.4122-2.372.5496-3.5579.5496-4.151 0-7.3897-2.7481-7.3897-6.2748 0-4.6717 3.6036-6.9159 7.709-6.9159.9579 0 1.9614.0916 2.9193.3206z" fill="#000" fill-opacity=".9"></path></g><g mask="url(#h)"><path d="m99.213 18.1353c.0456 3.2977 2.372 5.2214 5.383 5.2214 1.642 0 3.193-.4581 4.424-1.4199h.091l-1.368 2.5649c-1.14.5038-2.463.687-3.74.687-4.6075 0-7.755-2.8855-7.755-6.687s2.7369-6.5037 6.751-6.5037c3.695 0 6.204 2.6564 6.067 6.1373zm7.116-1.5572c-.319-1.8779-1.551-2.7939-3.467-2.7939-1.824 0-3.1472 1.0993-3.4665 2.7939z" fill="#000" fill-opacity=".9"></path></g><g mask="url(#i)"><path d="m112.982 6.96296c.639 0 1.323.0458 1.733-.41221h.092v15.25175c0 1.2366-.183 2.2443 1.003 2.9313v.0916h-4.47v-.0916c1.14-.687 1.003-1.6947 1.003-2.9313v-11.81667c0-1.23663.183-2.24425-1.003-2.93127v-.0916z" fill="#000" fill-opacity=".9"></path></g><g mask="url(#j)"><path d="m120.01 6.96296c.639 0 1.323.0458 1.734-.41221h.091v15.25175c0 1.2366-.183 2.2443 1.003 2.9313v.0916h-4.47v-.0916c1.141-.687 1.004-1.6947 1.004-2.9313v-11.81667c0-1.23663.182-2.24425-1.004-2.93127v-.0916z" fill="#000" fill-opacity=".9"></path></g><g mask="url(#k)"><path d="m128.133 18.1353c.046 3.2977 2.326 5.2214 5.383 5.2214 1.642 0 3.193-.4581 4.424-1.4199h.091l-1.368 2.5649c-1.14.5038-2.463.687-3.74.687-4.608 0-7.755-2.8855-7.755-6.687s2.737-6.5037 6.751-6.5037c3.695 0 6.204 2.6564 6.067 6.1373zm7.07-1.5572c-.319-1.8779-1.551-2.7939-3.466-2.7939-1.825 0-3.148 1.0993-3.467 2.7939z" fill="#000" fill-opacity=".9"></path></g><g mask="url(#l)"><path d="m141.718 12.3197c.593 0 1.232-.0458 1.825-.3664h.091v2.1069c.958-1.2824 2.053-2.1069 3.786-2.1069 1.505 0 3.239.5955 4.105 1.8779.776 1.0992.684 2.748.684 4.0305v3.9389c0 1.2366-.182 2.2442 1.004 2.8854v.0916h-4.516v-.0458c1.186-.687 1.004-1.6946 1.004-2.8854v-3.6641c0-2.8855-.821-4.3969-3.285-4.3969-2.463 0-2.873 1.6488-2.873 3.2519v4.8091c0 1.2366-.183 2.2442 1.003 2.8854v.0916h-4.516v-.0916c1.186-.687 1.049-1.6946 1.049-2.9312v-6.458c0-1.2366.183-2.2442-1.049-2.9313v-.0916z" fill="#000" fill-opacity=".9"></path></g><g mask="url(#m)"><path d="m165.711 15.1125h-.091c-.775-.9161-2.098-1.3283-3.284-1.3283-2.6 0-4.516 1.8321-4.516 4.4427 0 3.1145 2.6 5.1756 5.611 5.1756 1.368 0 2.873-.5497 3.922-1.3283h.092l-1.414 2.5649c-1.141.4122-2.372.5496-3.558.5496-4.151 0-7.39-2.7481-7.39-6.2748 0-4.6717 3.604-6.9159 7.709-6.9159.958 0 1.961.0916 2.919.3206z" fill="#000" fill-opacity=".9"></path></g><g mask="url(#n)"><path d="m171.048 18.1353c.046 3.2977 2.372 5.2214 5.383 5.2214 1.642 0 3.193-.4581 4.424-1.4199h.091l-1.368 2.5649c-1.14.5038-2.463.687-3.74.687-4.608 0-7.755-2.8855-7.755-6.687s2.737-6.5037 6.751-6.5037c3.695 0 6.204 2.6564 6.067 6.1373zm7.07-1.5572c-.319-1.8779-1.551-2.7939-3.466-2.7939-1.825 0-3.148 1.0993-3.467 2.7939z" fill="#000" fill-opacity=".9"></path></g><g fill="#000" fill-opacity=".9"><path d="m130.182 44.2933c-2.555 0-4.516-1.7862-4.516-4.5801 0-2.7481 1.961-4.5801 4.516-4.5801 1.642 0 2.646.687 3.147 1.145l-.501 1.0076c-.365-.458-1.323-1.0992-2.555-1.0992-1.916 0-3.284 1.374-3.284 3.4351 0 2.061 1.414 3.4351 3.284 3.4351 1.14 0 2.053-.458 2.646-1.0993l.547.9161c-.638.687-1.642 1.4198-3.284 1.4198z"></path><path d="m140.619 35.8688c.502.4122.867 1.0534.867 1.8779 0 .7786-.274 1.374-.685 1.7404-.365.3664-.866.5954-1.323.687l2.509 3.9389h-1.505l-2.281-3.8015h-.958v3.8015h-1.231v-8.8396h2.509c.821 0 1.55.1832 2.098.5954zm-1.004 3.1145c.411-.2748.548-.6412.548-1.1908 0-.5038-.183-.9161-.548-1.1909-.41-.2748-.866-.3206-1.459-.3206h-.913v3.0229h.913c.593 0 1.049-.0458 1.459-.3206z"></path><path d="m145.825 42.3726c.365.5038.913.7786 1.688.7786.776 0 1.323-.2748 1.688-.7786.41-.5038.41-1.2367.41-1.9695v-5.1297h1.232v5.2213c0 1.0993-.091 1.9695-.684 2.7023-.593.687-1.46 1.0992-2.646 1.0992s-2.052-.3664-2.645-1.0992-.73-1.603-.73-2.7023v-5.2213h1.231v5.1297c.046.7328.046 1.4657.456 1.9695z"></path><path d="m155.307 35.2734v8.8396h-1.232v-8.8396z"></path><path d="m161.065 43.2387c.958 0 1.733-.5496 1.733-1.4656 0-.8702-.775-1.145-1.414-1.4656l-1.277-.5497c-.958-.4122-1.551-1.145-1.551-2.1984 0-1.5572 1.414-2.3817 2.828-2.3817 1.46 0 2.281.8703 2.509 1.1451l-.639.8244c-.456-.458-1.094-.9618-1.961-.9618s-1.551.4122-1.551 1.2366c0 .7786.502 1.0992 1.14 1.3282l1.551.6412c.958.4122 1.597 1.2367 1.597 2.2443 0 1.6946-1.505 2.6106-3.056 2.6106s-2.418-1.0076-2.828-1.4656l.729-.8244c.365.5954 1.232 1.2824 2.19 1.2824z"></path><path d="m171.923 35.2734v1.0534h-3.923v2.6107h3.695v1.0534h-3.695v3.0687h4.014v1.0534h-5.245v-8.8396z"></path><path d="m177.342 43.2387c.958 0 1.734-.5496 1.734-1.4656 0-.8702-.776-1.145-1.414-1.4656l-1.278-.5497c-.958-.4122-1.551-1.145-1.551-2.1984 0-1.5572 1.414-2.3817 2.829-2.3817 1.459 0 2.28.8703 2.508 1.1451l-.638.8244c-.456-.458-1.095-.9618-1.962-.9618-.866 0-1.551.4122-1.551 1.2366 0 .7786.502 1.0992 1.141 1.3282l1.551.6412c.958.4122 1.596 1.2367 1.596 2.2443 0 1.6946-1.505 2.6106-3.056 2.6106s-2.418-1.0076-2.828-1.4656l.73-.8244c.365.5954 1.231 1.2824 2.189 1.2824z"></path></g></g></svg>