<svg xmlns="http://www.w3.org/2000/svg" viewBox="0 0 59 19">
<path d="M28.6892 14.1345C26.6291 15.3866 25.1967 16.2137 22.4803 17.1249C20.9659 17.6328 19.3869 18.0156 16.7324 18.2856C16.7324 18.2856 18.2861 18.7458 20.6153 18.8896C22.3114 18.9949 24.1662 19.0802 26.5671 18.8738C31.8474 18.4196 34.8145 17.3856 39.7792 13.5973C43.0706 11.0861 45.9938 8.77582 48.8267 7.3196C54.5524 4.37654 58.9996 5.38369 58.9996 5.38369C58.9996 5.38369 55.3206 4.27308 53.0552 4.01237C47.4281 3.36474 42.7894 4.33293 36.6484 8.5202C34.6068 9.91194 31.8062 12.2399 28.6892 14.1345Z" fill="currentColor"></path>
<path d="M34.4194 1.51885C37.9943 0.500098 40.3301 0.836898 40.3301 0.836898C40.3301 0.836898 37.6511 0 33.0929 0C27.2045 0 22.6463 1.57081 16.5978 6.00256C14.2773 7.70327 10.4744 10.3838 7.19878 12.0826C3.04019 14.2393 0 14.4504 0 14.4504C0 14.4504 3.16554 14.9927 7.08037 14.8401C9.26026 14.7547 11.2316 14.2635 13.2107 13.5551C15.4928 12.7386 19.0432 10.5285 21.0436 9.06021C24.9478 6.19602 30.3154 2.68837 34.4194 1.51885Z" fill="currentColor"></path>
<path d="M35.1285 7.80764C35.5739 7.48569 36.2825 6.99904 37.2076 6.41869C38.603 5.54328 40.7834 4.27077 42.979 3.57026C46.3684 2.48888 49.725 2.72502 49.725 2.72502C49.725 2.72502 44.7667 1.2957 39.4564 1.94472C34.938 2.49723 31.6138 3.57676 24.5552 8.36387C21.6459 10.3369 17.2828 13.9271 12.1895 15.4381C9.67842 16.1827 7.51379 16.2764 7.51379 16.2764C7.51379 16.2764 10.6548 17.3791 15.9207 16.8994C18.645 16.6512 20.4743 16.2996 22.5371 15.567C25.2725 14.5956 27.1536 13.3764 28.97 12.2269C30.9348 10.9836 34.3445 8.37454 35.1285 7.80764Z" fill="currentColor"></path>
</svg>